<svg width="20" height="20" version="1.1" id="Layer_1" xmlns="http://www.w3.org/2000/svg" xmlns:xlink="http://www.w3.org/1999/xlink" x="0px" y="0px"
	 viewBox="0 0 298.757 298.757" style="enable-background:new 0 0 298.757 298.757;" xml:space="preserve">
<g>
	<g>
		<path d="M291.701,119.091h-39.95v-29.61c0-3.893-3.156-7.05-7.05-7.05h-95.549l-16.896-35.955
			c-1.162-2.472-3.648-4.051-6.381-4.051H7.05c-3.893,0-7.05,3.157-7.05,7.05v199.806c0,3.846,3.135,7.051,7.054,7.051
			c0.004,0,0.008-0.001,0.012-0.001h237.635c2.923,0,5.543-1.805,6.587-4.536l47-123.14
			C300.048,124.044,296.635,119.091,291.701,119.091z M14.1,56.526h107.299l16.896,35.955c1.162,2.472,3.648,4.051,6.381,4.051
			h92.975v22.56H54.05c-2.923,0-5.544,1.805-6.587,4.536L14.1,211.04V56.526z M239.846,242.231H17.287l41.618-109.04
			c10.158,0,212.404,0,222.559,0L239.846,242.231z"/>
	</g>
</g>
<g>
</g>
<g>
</g>
<g>
</g>
<g>
</g>
<g>
</g>
<g>
</g>
<g>
</g>
<g>
</g>
<g>
</g>
<g>
</g>
<g>
</g>
<g>
</g>
<g>
</g>
<g>
</g>
<g>
</g>
</svg>
