<?xml version="1.0" encoding="iso-8859-1"?>
<!-- Generator: Adobe Illustrator 19.0.0, SVG Export Plug-In . SVG Version: 6.00 Build 0)  -->
<svg version="1.1" id="Layer_1" xmlns="http://www.w3.org/2000/svg" xmlns:xlink="http://www.w3.org/1999/xlink" x="0px" y="0px"
	 viewBox="0 0 512 512" style="enable-background:new 0 0 512 512;" xml:space="preserve">
<g>
	<g>
		<g>
			<path d="M181.333,384H97.067c4.373-5.653,7.573-12.16,9.28-19.093c0.213-0.853,0.32-1.707,0.32-2.56V128h320v63.68
				c0,5.333,3.84,10.133,9.067,10.88C442.347,203.52,448,198.4,448,192v-74.667c0-5.867-4.8-10.667-10.667-10.667h-32V64
				c0-5.867-4.8-10.667-10.667-10.667H168.533l-30.72-48.427C135.893,1.813,132.48,0,128.853,0H10.667C4.8,0,0,4.8,0,10.667v351.68
				c0,0.853,0.107,1.707,0.32,2.56c5.76,23.147,25.92,38.827,50.453,39.893c0.853,0.32,1.707,0.427,2.56,0.533h127.68
				c5.333,0,10.133-3.84,10.88-9.067C192.853,389.653,187.733,384,181.333,384z M85.333,117.333V360.96
				c-4.8,16.747-20.16,22.72-32,22.72c-11.84,0-27.2-5.973-32-22.72V21.333H122.88L153.6,69.76c1.92,3.093,5.333,4.907,9.067,4.907
				H384v32H96C90.133,106.667,85.333,111.467,85.333,117.333z"/>
			<path d="M373.333,234.667c-76.587,0-138.667,62.08-138.667,138.667S296.747,512,373.333,512S512,449.92,512,373.333
				C511.893,296.747,449.92,234.773,373.333,234.667z M373.333,490.667C308.48,490.667,256,438.187,256,373.333
				S308.48,256,373.333,256s117.333,52.48,117.333,117.333C490.56,438.08,438.08,490.56,373.333,490.667z"/>
			<path d="M431.467,362.667H384V315.2c0-5.867-4.8-10.667-10.667-10.667c-5.867,0-10.667,4.8-10.667,10.667v47.467H315.2
				c-5.867,0-10.667,4.8-10.667,10.667c0,5.867,4.8,10.667,10.667,10.667h47.467v47.467c0,5.867,4.8,10.667,10.667,10.667
				c5.867,0,10.667-4.8,10.667-10.667V384h47.467c5.867,0,10.667-4.8,10.667-10.667C442.133,367.467,437.44,362.667,431.467,362.667
				z"/>
		</g>
	</g>
</g>
<g>
</g>
<g>
</g>
<g>
</g>
<g>
</g>
<g>
</g>
<g>
</g>
<g>
</g>
<g>
</g>
<g>
</g>
<g>
</g>
<g>
</g>
<g>
</g>
<g>
</g>
<g>
</g>
<g>
</g>
</svg>
