<svg version="1.1" xmlns="http://www.w3.org/2000/svg" xmlns:xlink="http://www.w3.org/1999/xlink" x="0px" y="0px" viewBox="0 0 1000 1000" enable-background="new 0 0 1000 1000" xml:space="preserve" width="20" height="20"><metadata> Svg Vector Icons : http://www.onlinewebfonts.com/icon </metadata><g><path d="M898.1,256.2H747.5v-62.5c0-84.5,137.2-88.8,138.4-88.8c25.1-0.6,45.3-22,44.7-48.4C929.9,30.2,909.1,10.6,884,10c-51.3,1.2-131.9,18.7-182.2,69.6C651.3,28.6,570.6,11.1,519.6,10c-25.7,0-46.5,20.2-47.2,46.5c0,26.3,19.6,47.8,45.3,48.4c1.2,0,138.4,3.7,138.4,88.8v62.5H101.3c-50.8,0-91.3,49-91.3,101.1v295.8c0,52.1,44.1,86.4,94.9,86.4h551.2v99.8c-17.2,18.4-60.6,55.7-137.8,55.7c-25.1,0-45.9,21.4-45.9,47.8c0,25.7,20.8,47.1,45.9,47.1c88.6,0,148.4-35.5,183.3-65.7c34.9,30.2,94.5,65.7,183,65.7c25.8,0,45.9-21.4,45.9-47.1c0-26.4-20.2-47.8-45.9-47.8c-77.2,0-120.6-37.4-137.2-55.1V739.5h154.4c50.2,0,88.2-34.3,88.2-86.4V357.3C990,305.2,948.4,256.2,898.1,256.2z M70.6,684.3l-1.8-371.2l587.4,1.2v372.4L70.6,684.3z M929.4,688l-181.9-0.8V314.6l181.9,0.4V688z M501.2,562.4l-306.9-1.8l-1.8-121.9h306.9L501.2,562.4z"/></g></svg>